<?xml version="1.0" encoding="UTF-8" standalone="no"?>
<!-- Generator: Adobe Illustrator 15.0.0, SVG Export Plug-In . SVG Version: 6.00 Build 0)  -->

<svg
   xmlns:dc="http://purl.org/dc/elements/1.1/"
   xmlns:cc="http://creativecommons.org/ns#"
   xmlns:rdf="http://www.w3.org/1999/02/22-rdf-syntax-ns#"
   xmlns:svg="http://www.w3.org/2000/svg"
   xmlns="http://www.w3.org/2000/svg"
   xmlns:sodipodi="http://sodipodi.sourceforge.net/DTD/sodipodi-0.dtd"
   xmlns:inkscape="http://www.inkscape.org/namespaces/inkscape"
   version="1.1"
   id="Layer_1"
   x="0px"
   y="0px"
   width="360px"
   height="40px"
   viewBox="0 0 360 40"
   enable-background="new 0 0 360 40"
   xml:space="preserve"
   sodipodi:docname="browser.svg"
   inkscape:version="0.92.1 r15371"><metadata
     id="metadata9"><rdf:RDF><cc:Work
         rdf:about=""><dc:format>image/svg+xml</dc:format><dc:type
           rdf:resource="http://purl.org/dc/dcmitype/StillImage" /><dc:title></dc:title></cc:Work></rdf:RDF></metadata><defs
     id="defs7" /><sodipodi:namedview
     pagecolor="#ffffff"
     bordercolor="#666666"
     borderopacity="1"
     objecttolerance="10"
     gridtolerance="10"
     guidetolerance="10"
     inkscape:pageopacity="0"
     inkscape:pageshadow="2"
     inkscape:window-width="640"
     inkscape:window-height="480"
     id="namedview5"
     showgrid="false"
     inkscape:zoom="0.89444444"
     inkscape:cx="180"
     inkscape:cy="20"
     inkscape:window-x="0"
     inkscape:window-y="0"
     inkscape:window-maximized="0"
     inkscape:current-layer="Layer_1" /><path
     fill="#4D4D4D"
     d="M356,0H4C1.8,0,0,1.8,0,4v16v20h360V4C360,1.8,358.2,0,356,0z M22.991,27c-3.866,0-7-3.134-7-7s3.134-7,7-7  s7,3.134,7,7S26.857,27,22.991,27z M46.002,27c-3.866,0-7-3.134-7-7s3.134-7,7-7s7,3.134,7,7S49.868,27,46.002,27z M69.013,27  c-3.866,0-7-3.134-7-7s3.134-7,7-7s7,3.134,7,7S72.879,27,69.013,27z"
     id="path2" /></svg>