<?xml version="1.0" encoding="UTF-8" standalone="no"?>
<!-- Generator: Adobe Illustrator 15.0.0, SVG Export Plug-In . SVG Version: 6.00 Build 0)  -->

<svg
   xmlns:dc="http://purl.org/dc/elements/1.1/"
   xmlns:cc="http://creativecommons.org/ns#"
   xmlns:rdf="http://www.w3.org/1999/02/22-rdf-syntax-ns#"
   xmlns:svg="http://www.w3.org/2000/svg"
   xmlns="http://www.w3.org/2000/svg"
   xmlns:sodipodi="http://sodipodi.sourceforge.net/DTD/sodipodi-0.dtd"
   xmlns:inkscape="http://www.inkscape.org/namespaces/inkscape"
   version="1.1"
   x="0px"
   y="0px"
   width="27px"
   height="23px"
   viewBox="0 0 27 23"
   enable-background="new 0 0 27 23"
   xml:space="preserve"
   id="svg10"
   sodipodi:docname="checkbox-on.svg"
   inkscape:version="0.92.1 r15371"><metadata
     id="metadata16"><rdf:RDF><cc:Work
         rdf:about=""><dc:format>image/svg+xml</dc:format><dc:type
           rdf:resource="http://purl.org/dc/dcmitype/StillImage" /><dc:title></dc:title></cc:Work></rdf:RDF></metadata><defs
     id="defs14" /><sodipodi:namedview
     pagecolor="#ffffff"
     bordercolor="#666666"
     borderopacity="1"
     objecttolerance="10"
     gridtolerance="10"
     guidetolerance="10"
     inkscape:pageopacity="0"
     inkscape:pageshadow="2"
     inkscape:window-width="640"
     inkscape:window-height="480"
     id="namedview12"
     showgrid="false"
     inkscape:zoom="10.26087"
     inkscape:cx="13.5"
     inkscape:cy="11.5"
     inkscape:window-x="0"
     inkscape:window-y="0"
     inkscape:window-maximized="0"
     inkscape:current-layer="svg10" /><g
     id="Layer_1" /><g
     id="Layer_2"><g
       id="g7"><polygon
         points="7.285,7.486 4.456,10.315 12.239,18.098 26.171,4.166 23.343,1.337 12.239,12.439   "
         id="polygon3" /><path
         d="M21,20c0,0.542-0.458,1-1,1H3c-0.542,0-1-0.458-1-1V3c0-0.542,0.458-1,1-1h16.908l1.585-1.585C21.051,0.158,20.545,0,20,0    H3C1.35,0,0,1.35,0,3v17c0,1.65,1.35,3,3,3h17c1.65,0,3-1.35,3-3v-9.829l-2,2V20z"
         id="path5" /></g></g></svg>