<?xml version="1.0" encoding="UTF-8" standalone="no"?>
<!-- Generator: Adobe Illustrator 15.0.0, SVG Export Plug-In . SVG Version: 6.00 Build 0)  -->

<svg
   xmlns:dc="http://purl.org/dc/elements/1.1/"
   xmlns:cc="http://creativecommons.org/ns#"
   xmlns:rdf="http://www.w3.org/1999/02/22-rdf-syntax-ns#"
   xmlns:svg="http://www.w3.org/2000/svg"
   xmlns="http://www.w3.org/2000/svg"
   xmlns:sodipodi="http://sodipodi.sourceforge.net/DTD/sodipodi-0.dtd"
   xmlns:inkscape="http://www.inkscape.org/namespaces/inkscape"
   version="1.1"
   id="Layer_1"
   x="0px"
   y="0px"
   width="21px"
   height="21px"
   viewBox="0 0 21 21"
   enable-background="new 0 0 21 21"
   xml:space="preserve"
   sodipodi:docname="insta-icon.svg"
   inkscape:version="0.92.1 r15371"><metadata
     id="metadata9"><rdf:RDF><cc:Work
         rdf:about=""><dc:format>image/svg+xml</dc:format><dc:type
           rdf:resource="http://purl.org/dc/dcmitype/StillImage" /><dc:title></dc:title></cc:Work></rdf:RDF></metadata><defs
     id="defs7" /><sodipodi:namedview
     pagecolor="#ffffff"
     bordercolor="#666666"
     borderopacity="1"
     objecttolerance="10"
     gridtolerance="10"
     guidetolerance="10"
     inkscape:pageopacity="0"
     inkscape:pageshadow="2"
     inkscape:window-width="640"
     inkscape:window-height="480"
     id="namedview5"
     showgrid="false"
     inkscape:zoom="11.238095"
     inkscape:cx="10.5"
     inkscape:cy="10.5"
     inkscape:window-x="290"
     inkscape:window-y="118"
     inkscape:window-maximized="0"
     inkscape:current-layer="Layer_1" /><path
     fill="#FFFFFF"
     d="M18,0H3C1.35,0,0,1.35,0,3v15c0,1.65,1.35,3,3,3h15c1.65,0,3-1.35,3-3V3C21,1.35,19.65,0,18,0z M10.5,7  c1.93,0,3.5,1.57,3.5,3.5S12.43,14,10.5,14S7,12.43,7,10.5S8.57,7,10.5,7z M18,18H3V9h1.181C4.067,9.482,4,9.983,4,10.5  c0,3.59,2.91,6.5,6.5,6.5s6.5-2.91,6.5-6.5c0-0.517-0.066-1.018-0.181-1.5H18V18z M18,7h-4V3h4V7z"
     id="path2" /></svg>